# xmcd CD database file
#
# Track frame offsets:
#	150
#	18624
#	36292
#
# Disc length: 747 seconds
#
# Revision: 6
# Processed by: cddbd v1.5.1PL2 Copyright (c) Steve Scherf et al.
# Submitted via: CDex 1.51
#
DISCID=1f02e903
DTITLE=Perfume - リニアモーターガール
DYEAR=2005
DGENRE=J-pop
TTITLE0=リニアモーターガール
TTITLE1=ファンデーション
TTITLE2=コンピューター ドライビング
EXTD=YEAR: 2005
EXTT0=
EXTT1=
EXTT2=
PLAYORDER=
